<svg width="13" height="13" viewBox="0 0 13 13" fill="none" xmlns="http://www.w3.org/2000/svg">
<g id="icons" clip-path="url(#clip0_1_8352)">
<path id="Vector" d="M7.46663 1.06665H3.19997C2.91707 1.06665 2.64576 1.17903 2.44572 1.37907C2.24568 1.57911 2.1333 1.85042 2.1333 2.13332V10.6667C2.1333 10.9495 2.24568 11.2209 2.44572 11.4209C2.64576 11.6209 2.91707 11.7333 3.19997 11.7333H9.59997C9.88286 11.7333 10.1542 11.6209 10.3542 11.4209C10.5543 11.2209 10.6666 10.9495 10.6666 10.6667V4.26665L7.46663 1.06665Z" stroke="#1A6FEE" stroke-linecap="round" stroke-linejoin="round"/>
<path id="Vector_2" d="M7.4668 1.06665V4.26665H10.6668" stroke="#1A6FEE" stroke-linecap="round" stroke-linejoin="round"/>
<path id="Vector_3" d="M8.53327 6.93335H4.2666" stroke="#1A6FEE" stroke-linecap="round" stroke-linejoin="round"/>
<path id="Vector_4" d="M8.53327 9.06665H4.2666" stroke="#1A6FEE" stroke-linecap="round" stroke-linejoin="round"/>
<path id="Vector_5" d="M5.33327 4.79999H4.79993H4.2666" stroke="#1A6FEE" stroke-linecap="round" stroke-linejoin="round"/>
</g>
<defs>
<clipPath id="clip0_1_8352">
<rect width="12.8" height="12.8" fill="white"/>
</clipPath>
</defs>
</svg>
